<svg viewBox="0 0 86.09 326.48" xmlns="http://www.w3.org/2000/svg"><path d="m62.24 0v36q0 9-4.46 13.82a14.43 14.43 0 0 1 -11 4.82 13.93 13.93 0 0 1 -9.47-3.44 15.32 15.32 0 0 1 -4.16-6.71q-1.61 6.71-5.54 9.87a15.23 15.23 0 0 1 -9.87 3.16 17 17 0 0 1 -8.74-2.24 16.58 16.58 0 0 1 -6.11-6.16 20.32 20.32 0 0 1 -2-7.3 84.1 84.1 0 0 1 -.89-8.62v-33.2zm-24.41 19.4v8.36q0 4.5 1.55 6.26a5.65 5.65 0 0 0 4.48 1.76 5.32 5.32 0 0 0 4.24-1.78q1.53-1.76 1.53-6.13v-8.47zm-24.45 0v9.81q0 5 1.76 7a5.94 5.94 0 0 0 4.73 2 5.48 5.48 0 0 0 4.44-2q1.68-2 1.68-7.07v-9.74z"/><path d="m10.27 104.36v-21.83l-10.27-3.03v-19.64l62.24 23.39v21l-62.24 23.37v-20.14zm13.46-4 22.37-6.87-22.37-6.8z"/><path d="m62.24 269.2v28.57q0 8.45-2.29 13.65a22.19 22.19 0 0 1 -6.58 8.6 27.24 27.24 0 0 1 -10 4.92 46.31 46.31 0 0 1 -12.06 1.53q-10 0-15.47-2.27a25.61 25.61 0 0 1 -9.21-6.3 20.57 20.57 0 0 1 -4.95-8.66 44.6 44.6 0 0 1 -1.68-11.46v-28.58zm-14.1 19.24h-34v4.71q0 6 1.34 8.58a9.07 9.07 0 0 0 4.67 4q3.33 1.44 10.81 1.44 9.89 0 13.54-3.23t3.65-10.7z"/><circle cx="78.26" cy="80.53" r="7.83"/><circle cx="78.26" cy="106.95" r="7.83"/><path d="m48.7 201.19q15.67 7.73 15.67 28.7 0 15.58-8.32 24t-23.44 8.38q-15.75 0-24.18-8.28t-8.43-23.29q0-13.5 5.33-20.76a27.9 27.9 0 0 1 13.82-10.15l4.85 18.09q-9.6 2.63-9.6 12.1 0 11 11.93 12.61v-18.77h11.58v18.85q12-1.83 12-12.78 0-8.53-7.81-11.38z"/><path d="m.83 192v-21.66l16.07-7.5q5.7-2.66 7.13-4.14a5.66 5.66 0 0 0 1.43-4.1h-24.63v-19.19h62.24v19.19h-23.91a5.21 5.21 0 0 0 1.78 3.91q1.66 1.4 9.51 4.37a27.87 27.87 0 0 1 8.34 4.37q2.53 2.21 3.63 7.17t1.11 15.58h-13.16v-1q0-4.93-1.87-7.3a13.29 13.29 0 0 0 -6.05-3.91 20.62 20.62 0 0 1 -6.24-3.29 12.18 12.18 0 0 1 -3.29-4.82 17 17 0 0 1 -4.69 7.32 44.71 44.71 0 0 1 -10.38 6.58z"/></svg>