<svg id="Layer_1" data-name="Layer 1" xmlns="http://www.w3.org/2000/svg" viewBox="0 0 1332.67 351.44"><defs><style>.cls-1{fill:#150d0b;}</style></defs><title>Untitled-1</title><path class="cls-1" d="M302,552.93H449q36.74,0,56.41,18.2T525,616.18q0,22.53-14,38.64-9.36,10.75-27.38,17,27.38,6.58,40.29,22.62t12.91,40.29q0,19.76-9.18,35.52a67.66,67.66,0,0,1-25.13,25q-9.88,5.72-29.81,8.32Q446.18,807,437.52,807H302Zm79.2,99.65h34.14q18.37,0,25.56-6.32T448.09,628q0-11.09-7.19-17.33t-25-6.24H381.2Zm0,99.82h40q20.27,0,28.59-7.19t8.32-19.33q0-11.26-8.23-18.11t-28.85-6.84H381.2Z" transform="translate(-302 -455.55)"/><path class="cls-1" d="M728,765H638.89L626.5,807H546.35l95.49-254.05h85.64L822.93,807h-82.2Zm-16.28-54.94-28-91.33-27.75,91.33Z" transform="translate(-302 -455.55)"/><path class="cls-1" d="M1400.89,552.93h116.63q34.49,0,55.72,9.36a90.58,90.58,0,0,1,35.09,26.86,111.2,111.2,0,0,1,20.1,40.72,189,189,0,0,1,6.24,49.22q0,40.73-9.27,63.17a104.56,104.56,0,0,1-25.73,37.61Q1583.2,795,1564.31,800q-25.82,6.93-46.79,6.93H1400.89Zm78.5,57.53V749.27h19.24q24.6,0,35-5.46t16.29-19.06q5.89-13.61,5.89-44.11,0-40.38-13.17-55.28T1499,610.46Z" transform="translate(-302 -455.55)"/><circle class="cls-1" cx="328.71" cy="31.97" r="31.97"/><circle class="cls-1" cx="436.58" cy="31.97" r="31.97"/><path class="cls-1" d="M1123.26,608.21q31.54-64,117.15-63.95,63.6,0,97.83,34t34.23,95.66q0,64.29-33.79,98.69t-95,34.4q-55.11,0-84.74-21.75a113.9,113.9,0,0,1-41.42-56.41l73.83-19.93q10.75,39.17,49.39,39.17,45.06,0,51.47-48.7h-76.6V652.23h76.95q-7.45-49-52.16-49-34.84,0-46.44,31.89Z" transform="translate(-302 -455.55)"/><path class="cls-1" d="M1085.74,803.6H997.33L966.72,738q-10.87-23.26-16.91-29.09t-16.74-5.82V803.6H854.74V549.55h78.33v97.57q10.23-.52,15.94-7.28T966.86,601q8.84-23.74,17.85-34.05T1014,552.15q20.28-4.5,63.6-4.5v53.72h-4q-20.11,0-29.81,7.62t-15.94,24.7q-6.24,17.07-13.43,25.47t-19.67,13.43a69.37,69.37,0,0,1,29.64,19.15q12.65,13.6,26.86,42.37Z" transform="translate(-302 -455.55)"/></svg>